<svg width="42" height="42" viewBox="0 0 42 42" fill="none" xmlns="http://www.w3.org/2000/svg">
<circle cx="21" cy="21" r="21" fill="white"/>
<path d="M30.6938 12.1074C28.9205 11.2807 27.0005 10.6807 25.0005 10.334C24.9829 10.3335 24.9655 10.3368 24.9494 10.3437C24.9333 10.3506 24.9188 10.361 24.9072 10.374C24.6671 10.814 24.3871 11.3874 24.2005 11.8274C22.0791 11.5074 19.9218 11.5074 17.8005 11.8274C17.6138 11.374 17.3338 10.814 17.0805 10.374C17.0671 10.3474 17.0271 10.334 16.9871 10.334C14.9871 10.6807 13.0805 11.2807 11.2938 12.1074C11.2805 12.1074 11.2671 12.1207 11.2538 12.134C7.62715 17.5607 6.62715 22.8407 7.12048 28.0674C7.12048 28.094 7.13382 28.1207 7.16048 28.134C9.56048 29.894 11.8671 30.9607 14.1471 31.6674C14.1871 31.6807 14.2271 31.6674 14.2405 31.6407C14.7738 30.9074 15.2538 30.134 15.6671 29.3207C15.6938 29.2674 15.6671 29.214 15.6138 29.2007C14.8538 28.9074 14.1338 28.5607 13.4271 28.1607C13.3738 28.134 13.3738 28.054 13.4138 28.014C13.5605 27.9074 13.7071 27.7874 13.8538 27.6807C13.8805 27.654 13.9205 27.654 13.9471 27.6674C18.5338 29.7607 23.4805 29.7607 28.0138 27.6674C28.0405 27.654 28.0805 27.654 28.1071 27.6807C28.2538 27.8007 28.4005 27.9074 28.5471 28.0274C28.6005 28.0674 28.6005 28.1474 28.5338 28.174C27.8405 28.5874 27.1071 28.9207 26.3471 29.214C26.2938 29.2274 26.2805 29.294 26.2938 29.334C26.7205 30.1474 27.2005 30.9207 27.7205 31.654C27.7605 31.6674 27.8005 31.6807 27.8405 31.6674C30.1338 30.9607 32.4405 29.894 34.8405 28.134C34.8671 28.1207 34.8805 28.094 34.8805 28.0674C35.4671 22.0274 33.9071 16.7874 30.7471 12.134C30.7338 12.1207 30.7205 12.1074 30.6938 12.1074ZM16.3605 24.8807C14.9871 24.8807 13.8405 23.614 13.8405 22.054C13.8405 20.494 14.9605 19.2274 16.3605 19.2274C17.7738 19.2274 18.8938 20.5074 18.8805 22.054C18.8805 23.614 17.7605 24.8807 16.3605 24.8807ZM25.6538 24.8807C24.2805 24.8807 23.1338 23.614 23.1338 22.054C23.1338 20.494 24.2538 19.2274 25.6538 19.2274C27.0671 19.2274 28.1871 20.5074 28.1738 22.054C28.1738 23.614 27.0671 24.8807 25.6538 24.8807Z" fill="black"/>
</svg>
