<svg width="29" height="29" viewBox="0 0 29 29" fill="none" xmlns="http://www.w3.org/2000/svg">
<circle cx="14.0886" cy="14.0886" r="14.0886" fill="white"/>
<path d="M20.5921 8.12236C19.4024 7.56776 18.1143 7.16523 16.7725 6.93266C16.7608 6.93228 16.7491 6.93449 16.7383 6.93913C16.7274 6.94376 16.7178 6.95072 16.7099 6.95949C16.5489 7.25468 16.3611 7.63932 16.2358 7.93451C14.8127 7.71983 13.3653 7.71983 11.9422 7.93451C11.8169 7.63038 11.6291 7.25468 11.4591 6.95949C11.4502 6.9416 11.4234 6.93266 11.3965 6.93266C10.0547 7.16523 8.77559 7.56776 7.57694 8.12236C7.56799 8.12236 7.55905 8.13131 7.5501 8.14025C5.11702 11.7809 4.44614 15.3232 4.77711 18.8297C4.77711 18.8476 4.78605 18.8655 4.80394 18.8744C6.41407 20.0552 7.96158 20.7708 9.4912 21.2449C9.51803 21.2538 9.54487 21.2449 9.55382 21.227C9.91162 20.735 10.2336 20.2162 10.5109 19.6705C10.5288 19.6348 10.5109 19.599 10.4752 19.59C9.96529 19.3932 9.48225 19.1607 9.00816 18.8923C8.97238 18.8744 8.97238 18.8208 8.99922 18.7939C9.09761 18.7224 9.19601 18.6419 9.29441 18.5703C9.3123 18.5524 9.33913 18.5524 9.35702 18.5613C12.4342 19.9657 15.7528 19.9657 18.7942 18.5613C18.812 18.5524 18.8389 18.5524 18.8568 18.5703C18.9552 18.6508 19.0536 18.7224 19.152 18.8029C19.1877 18.8297 19.1877 18.8834 19.143 18.9013C18.6779 19.1786 18.1859 19.4022 17.676 19.599C17.6402 19.6079 17.6313 19.6527 17.6402 19.6795C17.9265 20.2251 18.2485 20.744 18.5974 21.2359C18.6242 21.2449 18.651 21.2538 18.6779 21.2449C20.2164 20.7708 21.7639 20.0552 23.3741 18.8744C23.392 18.8655 23.4009 18.8476 23.4009 18.8297C23.7945 14.7776 22.7479 11.2621 20.6279 8.14025C20.619 8.13131 20.61 8.12236 20.5921 8.12236ZM10.9761 16.6918C10.0547 16.6918 9.28546 15.842 9.28546 14.7954C9.28546 13.7489 10.0369 12.8991 10.9761 12.8991C11.9243 12.8991 12.6757 13.7578 12.6667 14.7954C12.6667 15.842 11.9153 16.6918 10.9761 16.6918ZM17.2109 16.6918C16.2895 16.6918 15.5202 15.842 15.5202 14.7954C15.5202 13.7489 16.2716 12.8991 17.2109 12.8991C18.159 12.8991 18.9104 13.7578 18.9015 14.7954C18.9015 15.842 18.159 16.6918 17.2109 16.6918Z" fill="black"/>
</svg>
