<svg width="29" height="29" viewBox="0 0 29 29" fill="none" xmlns="http://www.w3.org/2000/svg">
<circle cx="14.9118" cy="14.0886" r="14.0886" fill="white"/>
<g clip-path="url(#clip0_161_119)">
<path d="M24.3034 8.53676C23.7803 9.32357 23.1385 9.9943 22.3781 10.5489C22.3856 10.6977 22.3893 10.8658 22.3893 11.0533C22.3893 12.0951 22.2391 13.1381 21.9387 14.1824C21.6383 15.2268 21.1795 16.2264 20.5621 17.1812C19.9448 18.1361 19.2094 18.982 18.3561 19.719C17.5027 20.456 16.4769 21.0437 15.2786 21.482C14.0804 21.9202 12.7962 22.1394 11.4261 22.1394C9.28778 22.1394 7.3186 21.5556 5.51855 20.3881C5.83804 20.4241 6.14446 20.4421 6.4378 20.4421C8.22419 20.4421 9.81972 19.8857 11.2244 18.7729C10.3915 18.7574 9.64554 18.4981 8.98658 17.995C8.32762 17.4919 7.87414 16.8491 7.62614 16.0664C7.87127 16.1136 8.11321 16.1372 8.35195 16.1372C8.69561 16.1372 9.03376 16.0919 9.36641 16.0013C8.47754 15.8212 7.74014 15.3736 7.15422 14.6582C6.56831 13.9429 6.27536 13.1172 6.27536 12.1813V12.133C6.82096 12.4385 7.40292 12.601 8.02126 12.6205C7.49469 12.2655 7.07721 11.8026 6.7688 11.2318C6.46037 10.661 6.30616 10.0432 6.30616 9.37858C6.30616 8.6776 6.47986 8.02485 6.82727 7.42034C7.79391 8.61987 8.96519 9.57857 10.3411 10.2964C11.7171 11.0143 13.1932 11.413 14.7695 11.4925C14.7023 11.2092 14.6686 10.9135 14.6685 10.6055C14.6685 9.53004 15.0448 8.61176 15.7976 7.85065C16.5503 7.08954 17.4584 6.70898 18.522 6.70898C19.6354 6.70898 20.5733 7.11897 21.3356 7.93896C22.2066 7.7645 23.0221 7.44895 23.7822 6.99232C23.4893 7.92421 22.9251 8.6431 22.0894 9.14899C22.8575 9.0567 23.5955 8.85262 24.3033 8.53676H24.3034Z" fill="black"/>
</g>
<defs>
<clipPath id="clip0_161_119">
<rect width="18.7848" height="15.4304" fill="white" transform="translate(5.51855 6.70898)"/>
</clipPath>
</defs>
</svg>
