<svg width="42" height="42" viewBox="0 0 42 42" fill="none" xmlns="http://www.w3.org/2000/svg">
<circle cx="21" cy="21" r="21" fill="white"/>
<g clip-path="url(#clip0_161_102)">
<path d="M35 12.7244C34.2203 13.8972 33.2637 14.897 32.1302 15.7237C32.1414 15.9454 32.147 16.196 32.147 16.4755C32.147 18.0283 31.9231 19.5831 31.4754 21.1397C31.0276 22.6963 30.3436 24.1863 29.4235 25.6096C28.5033 27.0329 27.4072 28.2938 26.1351 29.3923C24.8631 30.4909 23.3341 31.3668 21.548 32.0201C19.762 32.6734 17.8478 33 15.8056 33C12.6183 33 9.68308 32.1299 7 30.3897C7.47622 30.4433 7.93295 30.4701 8.37019 30.4701C11.0329 30.4701 13.4112 29.6407 15.5049 27.982C14.2634 27.959 13.1515 27.5725 12.1693 26.8226C11.1871 26.0727 10.5112 25.1144 10.1415 23.9479C10.5069 24.0182 10.8675 24.0534 11.2234 24.0534C11.7356 24.0534 12.2397 23.9859 12.7355 23.8508C11.4106 23.5824 10.3114 22.9151 9.43806 21.8488C8.56474 20.7826 8.12807 19.5519 8.12807 18.1568V18.0849C8.94132 18.5403 9.80878 18.7825 10.7304 18.8115C9.94556 18.2824 9.32327 17.5924 8.86357 16.7416C8.40384 15.8907 8.17397 14.9699 8.17397 13.9792C8.17397 12.9343 8.43289 11.9614 8.95073 11.0603C10.3916 12.8483 12.1374 14.2773 14.1884 15.3473C16.2393 16.4174 18.4396 17.0117 20.7892 17.1302C20.689 16.7078 20.6388 16.2671 20.6386 15.808C20.6386 14.205 21.1996 12.8362 22.3216 11.7017C23.4436 10.5672 24.7972 10 26.3824 10C28.0421 10 29.4401 10.6111 30.5764 11.8334C31.8746 11.5733 33.0902 11.103 34.2231 10.4223C33.7867 11.8114 32.9456 12.8829 31.7 13.637C32.8448 13.4994 33.9448 13.1952 35 12.7244H35Z" fill="black"/>
</g>
<defs>
<clipPath id="clip0_161_102">
<rect width="28" height="23" fill="white" transform="translate(7 10)"/>
</clipPath>
</defs>
</svg>
